<svg width="138" height="71" xmlns="http://www.w3.org/2000/svg">
 <title>Group</title>

 <g>
  <title>background</title>
  <rect fill="none" id="canvas_background" height="402" width="582" y="-1" x="-1"/>
 </g>
 <g>
  <title>Layer 1</title>
  <path id="svg_1" fill-rule="evenodd" fill="#FFF" d="m44.176,16.026s-3.428,0.133 -4.594,-0.933c-1.166,-1.067 0.762,-6.416 0.762,-6.416c-11.55,0 -13.8,9.534 -13.8,9.534c15.244,-3.974 16.068,6.22 16.068,6.22c-13.155,0 -28.273,14.14 -30.85,27.95c-2.577,13.81 6.017,10.81 10.03,8.105c4.014,-2.705 24.213,-24.895 29.654,-35.083c5.442,-10.188 13.618,-1.204 13.618,-1.204c-15.674,25.112 -8.84,23.74 -8.84,23.74c2.26,0.32 5.35,-6.17 5.35,-6.17c-0.982,-8.904 8.22,-16.99 14.903,-19.795c6.682,-2.806 10.824,6.38 10.824,6.38s-7.38,-0.014 -13.807,9.61c-6.426,9.622 -3.6,12.375 1.67,4.6c5.27,-7.773 9.31,-8.854 9.31,-8.854c11.226,-4.04 8.098,9.198 8.098,9.198l3.448,-0.344c3.253,-12.47 9.41,-17.852 16.698,-20.59c7.287,-2.74 9.385,6.92 9.385,6.92c5.074,-2.252 8.382,4.36 8.382,4.36c-5.49,8.046 -3.054,13.01 -1.934,13.236c1.12,0.227 4.677,-4.955 6.262,-7.92c1.585,-2.963 2.885,-0.608 2.885,-0.608c0.133,5.913 -2.905,9.828 -9.147,12.88c-6.24,3.052 -6.797,-12.585 -9.76,-12.585s-5.364,10.014 -13.226,11.857c-7.863,1.843 -9.544,-6.13 -9.544,-6.13l-3.79,0.41l-0.538,3.53c-0.622,2.19 0.54,4.372 0.54,4.372c11.48,9.127 2.332,10.802 2.332,10.802c-0.72,-5.793 -5.786,-7.504 -5.786,-7.504c-2.928,5.192 -9.206,8.946 -9.206,8.946c-17.898,10.49 -26.737,5.775 -24.585,-1.442c2.15,-7.218 24.582,-12.256 24.582,-12.256c3.154,-0.096 4.926,-13.96 4.034,-13.96c-0.893,0 -7.127,8.727 -7.127,8.727c-9.367,13.57 -14.358,-0.554 -14.358,-0.554s0.784,3.612 -4.997,5.786c-5.782,2.174 -11.56,-10.806 -11.56,-10.806l-12.636,16.38c-20,25.497 -30.676,-0.966 -30.676,-0.966c-9.49,-24.24 18.7,-35.353 18.7,-35.353c-9.14,-4.78 -2.022,-12.59 -2.022,-12.59c6.456,-8.364 24.05,-3.99 24.05,-3.99c6.726,-7.885 9.855,1.113 9.855,1.113l-8.657,11.396l0,0.001zm14.5,-3.965s-1.83,-7.234 4.966,-4.823c6.796,2.41 5.543,6.638 5.543,6.638l-1.48,1.325l0.376,2.314s-9.13,1.12 -9.13,-3.334c0,-4.454 -0.273,-2.12 -0.273,-2.12l-0.002,0zm5.767,47.2c-2.773,1.704 -7.865,5.432 -5.138,6.357c1.624,0.55 8.977,-3.424 8.977,-3.424c17.865,-11.078 9.296,-8.542 2.157,-5.654c-2.72,1.1 -5.232,2.25 -5.997,2.72l0.001,0.001zm42.47,-18.59s-1.003,1.878 0,2.036c1.004,0.158 4.82,-3.145 7.676,-6.616c2.854,-3.47 5.826,-6.255 4.443,-6.575c-1.318,-0.306 -4.2,1.554 -7.025,4.53c-2.824,2.974 -5.095,6.624 -5.095,6.624l0.001,0.001z"/>
  <g stroke="null" id="svg_6">
   <path stroke="null" id="svg_5" fill-rule="evenodd" fill="#5B9BA2" d="m45.070121,36.042184l-0.302409,-0.628779l1.304873,-2.107896l0.398524,-1.614736l-1.00305,0l-0.604526,0.25492l-0.796169,-1.495798l1.400695,-0.373496l0,-0.374221c-0.329368,-1.076974 -0.430172,-2.277964 -0.301823,-3.603694l0.109887,-1.988595l1.607283,0l0.494639,0.118939c0.265487,-1.326093 0.366291,-2.691348 0.301823,-4.096491l0.604526,0l0.508411,0.49316l0,0.373496c-0.338745,0.997198 -0.439549,2.074173 -0.301823,3.229835c0.668114,0.079776 1.267951,0.368057 1.799219,0.866656c0.467094,0.827493 0.668114,1.779364 0.604526,2.855613l-0.604526,2.005275l0.398524,0.612098c-0.531268,0.498599 -1.131105,0.74808 -1.799219,0.74808l-0.096701,0.49316c0.998361,1.076974 1.831453,2.238076 2.500153,3.484755l-0.604819,0c-1.199675,-0.827493 -2.101629,-1.988957 -2.706154,-3.484755l0,-0.237877l-0.206002,0c-0.467094,1.405143 -1.10356,2.685546 -1.909399,3.841208l-0.796462,0.629142zm-3.914913,-2.107533l-0.906642,-1.258283l0,-0.49316l0.192522,-0.492435c-0.063881,-1.405143 -0.260799,-2.770398 -0.59046,-4.096491l0.398524,-0.135982l0.192229,-2.974552l-0.096115,-0.373496l0.604526,-0.255283c0.668114,0.079051 1.272933,0.413384 1.813285,1.002638c0.732581,1.405143 1.066638,2.980717 1.002171,4.724907c0,0.737202 -0.16908,1.399704 -0.507825,1.98932c0.338745,-0.090654 0.508118,0.033723 0.508118,0.373496c-0.604233,0.736839 -1.309269,1.190111 -2.115108,1.359816l-0.192522,0.49316l-0.302409,0.135982l-0.000293,0.000363zm1.002757,-2.363179l0.301823,-2.124939c-0.402627,-0.249118 -0.837487,-0.328532 -1.30458,-0.237877c-0.338745,0.657426 -0.439549,1.444668 -0.301823,2.362816l0.603647,0.237877l0.700934,-0.237515l0,-0.000363zm4.821262,-1.750355c0.329661,-1.246679 0.563208,-2.572409 0.700347,-3.977915l-1.098872,-0.373496c-0.402627,0.997198 -0.540059,2.158662 -0.411711,3.484755l0.206002,0.866656l0.508411,0.135982l0.096115,-0.135619l-0.000293,-0.000363zm2.30763,0c0.265487,-0.997198 0.43486,-2.074173 0.508118,-3.229835l-0.412004,-0.629142l-0.700347,0l-0.494639,3.858251l1.002757,0.136344l0.096115,-0.135619zm-6.827069,-1.614736c0,-1.076974 -0.20102,-1.988957 -0.603647,-2.736675l-0.302409,-0.118939l-0.604526,0.373496l0,1.870019c0.40292,0.328532 0.870306,0.572211 1.400695,0.731037l0.11018,-0.118939l-0.000293,0zm19.079927,8.957742l-1.304873,-1.003c-0.201313,-1.246679 -0.26959,-2.572409 -0.206002,-3.977915l0.810528,-4.605969l0.301823,0c0.329955,0.917422 0.462991,1.954509 0.398524,3.110534l-0.095822,0.135982l0,0.237877l0.096115,0.135982c-0.137725,0.985595 -0.238235,1.976991 -0.302409,2.974552l0.206295,1.376496l0.494346,0.118939c1.547211,-0.17043 3.074496,-0.399605 4.580976,-0.688973c1.506187,-0.288644 2.99655,-0.642558 4.471089,-1.06247c0.064467,-1.325367 0.130399,-2.671041 0.199262,-4.035934c0.06857,-1.36598 0.235598,-2.672492 0.501085,-3.918446l0.398524,0l0.810235,1.002638l0,0.49316l-0.11018,0.373496l0.109887,0.748443l-0.11018,0.374221l0.109887,5.337731c-0.073258,0.997198 -0.311493,1.869294 -0.714413,2.617011l-0.301823,0c-0.394129,-0.498962 -0.659323,-1.076974 -0.797048,-1.734037l-0.301823,-0.135982c-1.474832,0.589254 -2.981019,1.047965 -4.519439,1.376859c-1.53842,0.328532 -3.113763,0.578012 -4.725441,0.74808l0.000879,0.000725zm3.007978,-2.618099l-0.797048,-0.373496c-0.604233,-1.575211 -0.838073,-3.314325 -0.700347,-5.218067l0.604526,-2.244603l0.301823,-0.118576l0.797048,0.25492l0.906349,-0.255283c-0.174061,-1.019681 -0.174061,-2.056767 0,-3.110534l-0.700347,-0.25492l-7.129186,-1.478392l-0.810235,-0.135982l-0.494932,0.135982c-0.86972,0.079776 -1.606697,-0.209593 -2.211223,-0.866656l-0.109887,-0.510203l0.109594,-0.237877l0.604526,0l0.301823,0.118939c0.870306,-0.079776 1.705449,-0.203791 2.507185,-0.373496c0.801151,-0.17043 1.673215,-0.210318 2.61678,-0.119664c1.473953,0.079776 2.847689,0.368419 4.120622,0.866656l0,0.629504c-1.410072,0.408307 -2.884611,0.651624 -4.423031,0.731037l-0.109594,2.872657c0.805839,0.249481 1.510875,0.742278 2.115694,1.478755l0.603647,2.124939c0.064467,1.155662 -0.237356,2.146696 -0.906056,2.974552l-0.797048,0.746992l-0.301823,-0.118576l-0.714413,0.237877l0,0.25492l-2.211516,0.373496l6.827069,1.615099zm1.016236,-1.359816l0.096115,-0.883699l-0.096115,-0.730674c-0.40292,0.079776 -0.773606,-0.044965 -1.112644,-0.373496l-0.095822,0.730674l0.301823,1.495798l0.398524,0l0.508411,-0.237877l-0.000293,-0.000725zm2.101629,-0.628779l0.206002,-1.615099l-0.508118,-0.118939l-0.604819,0.49316l-0.096115,0.49316l0.206002,0.746992l0.797048,0l0,0.000725zm-2.211516,-2.362816l0,-0.49316l0.109887,-1.002638c-0.40292,0 -0.741372,-0.125103 -1.016823,-0.374221c-0.191936,0.419186 -0.25611,0.877535 -0.191936,1.376496l0.192229,0.612098l0.301823,0.135982l0.604526,-0.25492l0.000293,0.000363zm2.513632,-0.374221l0,-0.49316l-0.301823,-0.866656l-0.906642,-0.25492l-0.096115,0.866656l0.096115,0.74808l1.208759,0l-0.000293,0z"/>
  </g>
  <rect id="svg_7" height="16.249972" width="31.999945" y="20.062527" x="40.437545" stroke-width="1.5" stroke="#000" fill="#5B9BA2"/>
 </g>
</svg>